<?xml version="1.0" encoding="UTF-8"?>
<svg xmlns="http://www.w3.org/2000/svg" viewBox="0 0 800 600" width="800" height="600">
<defs>
    <linearGradient id="bg-l60qs5" x1="0" y1="0" x2="1" y2="1"><stop offset="0%" stop-color="#5A5A5A"/><stop offset="100%" stop-color="#3D3D3D"/></linearGradient>
    <pattern id="weave-tzqgsg" patternUnits="userSpaceOnUse" width="20" height="20" patternTransform="rotate(45)">
      <line x1="0" y1="0" x2="0" y2="20" stroke="rgba(255,255,255,0.07)" stroke-width="0.8"/>
      <line x1="10" y1="0" x2="10" y2="20" stroke="rgba(0,0,0,0.04)" stroke-width="0.5"/>
    </pattern>
    <pattern id="weave-tzqgsg-h" patternUnits="userSpaceOnUse" width="24" height="24" patternTransform="rotate(-45)">
      <line x1="0" y1="0" x2="0" y2="24" stroke="rgba(255,255,255,0.07)" stroke-width="0.6"/>
      <line x1="12" y1="0" x2="12" y2="24" stroke="rgba(0,0,0,0.04)" stroke-width="0.4"/>
    </pattern>
  </defs>

  <rect width="800" height="600" fill="url(#bg-l60qs5)"/>
  <rect width="800" height="600" fill="url(#weave-tzqgsg)"/>
  <rect width="800" height="600" fill="url(#weave-tzqgsg-h)" opacity="0.7"/>
  <path d="M350,300 L350,230 Q350,210 370,210 L440,210 Q460,210 460,230 L460,300 Z" fill="rgba(255,255,255,0.04)" stroke="rgba(255,255,255,0.12)" stroke-width="1.5"/>
      <path d="M350,300 Q380,280 410,300 Q435,315 460,300" fill="none" stroke="rgba(255,255,255,0.12)" stroke-width="1"/>
  <line x1="120" y1="560" x2="680" y2="560" stroke="#E07B12" stroke-width="3" stroke-linecap="round" opacity="0.85"/>
  <text x="400" y="294.3333333333333" font-family="'Helvetica Neue', Helvetica, Arial, sans-serif" font-size="28" font-weight="300" fill="rgba(255,255,255,0.85)" text-anchor="middle" letter-spacing="2">Decken</text>
  <text x="400" y="582" font-family="'Helvetica Neue', Helvetica, Arial, sans-serif" font-size="11" letter-spacing="4" fill="rgba(255,255,255,0.45)" text-anchor="middle" font-variant="small-caps">MOSAROMA</text>
</svg>