<?xml version="1.0" encoding="UTF-8"?>
<svg xmlns="http://www.w3.org/2000/svg" viewBox="0 0 1920 720" width="1920" height="720">
<defs>
    <linearGradient id="bg-6chu2b" x1="0" y1="0" x2="1" y2="1"><stop offset="0%" stop-color="#3A4540"/><stop offset="100%" stop-color="#2A3530"/></linearGradient>
    <pattern id="weave-oc7ita" patternUnits="userSpaceOnUse" width="20" height="20" patternTransform="rotate(45)">
      <line x1="0" y1="0" x2="0" y2="20" stroke="rgba(255,255,255,0.05)" stroke-width="0.8"/>
      <line x1="10" y1="0" x2="10" y2="20" stroke="rgba(0,0,0,0.03)" stroke-width="0.5"/>
    </pattern>
    <pattern id="weave-oc7ita-h" patternUnits="userSpaceOnUse" width="24" height="24" patternTransform="rotate(-45)">
      <line x1="0" y1="0" x2="0" y2="24" stroke="rgba(255,255,255,0.05)" stroke-width="0.6"/>
      <line x1="12" y1="0" x2="12" y2="24" stroke="rgba(0,0,0,0.03)" stroke-width="0.4"/>
    </pattern>
  </defs>

  <rect width="1920" height="720" fill="url(#bg-6chu2b)"/>
  <rect width="1920" height="720" fill="url(#weave-oc7ita)"/>
  <rect width="1920" height="720" fill="url(#weave-oc7ita-h)" opacity="0.7"/>
  <circle cx="480" cy="280" r="14" fill="rgba(255,255,255,0.05)" stroke="rgba(255,255,255,0.1)" stroke-width="0.6"/><circle cx="476.5" cy="276.5" r="4.2" fill="rgba(255,255,255,0.07)"/><circle cx="614.4" cy="340" r="10" fill="rgba(255,255,255,0.05)" stroke="rgba(255,255,255,0.1)" stroke-width="0.6"/><circle cx="611.9" cy="337.5" r="3" fill="rgba(255,255,255,0.07)"/><circle cx="537.6" cy="400" r="12" fill="rgba(255,255,255,0.05)" stroke="rgba(255,255,255,0.1)" stroke-width="0.6"/><circle cx="534.6" cy="397" r="3.5999999999999996" fill="rgba(255,255,255,0.07)"/><circle cx="1248" cy="260" r="11" fill="rgba(255,255,255,0.05)" stroke="rgba(255,255,255,0.1)" stroke-width="0.6"/><circle cx="1245.25" cy="257.25" r="3.3" fill="rgba(255,255,255,0.07)"/><circle cx="1382.3999999999999" cy="320" r="13" fill="rgba(255,255,255,0.05)" stroke="rgba(255,255,255,0.1)" stroke-width="0.6"/><circle cx="1379.1499999999999" cy="316.75" r="3.9" fill="rgba(255,255,255,0.07)"/><circle cx="1305.6000000000001" cy="390" r="9" fill="rgba(255,255,255,0.05)" stroke="rgba(255,255,255,0.1)" stroke-width="0.6"/><circle cx="1303.3500000000001" cy="387.75" r="2.6999999999999997" fill="rgba(255,255,255,0.07)"/><circle cx="864" cy="300" r="8" fill="rgba(255,255,255,0.05)" stroke="rgba(255,255,255,0.1)" stroke-width="0.6"/><circle cx="862" cy="298" r="2.4" fill="rgba(255,255,255,0.07)"/><circle cx="998.4000000000001" cy="370" r="10" fill="rgba(255,255,255,0.05)" stroke="rgba(255,255,255,0.1)" stroke-width="0.6"/><circle cx="995.9000000000001" cy="367.5" r="3" fill="rgba(255,255,255,0.07)"/><circle cx="1536" cy="350" r="7" fill="rgba(255,255,255,0.05)" stroke="rgba(255,255,255,0.1)" stroke-width="0.6"/><circle cx="1534.25" cy="348.25" r="2.1" fill="rgba(255,255,255,0.07)"/><line x1="192" y1="160" x2="1728" y2="160" stroke="rgba(255,255,255,0.04)" stroke-width="0.6"/><line x1="192" y1="176" x2="1728" y2="176" stroke="rgba(255,255,255,0.02)" stroke-width="0.6"/><line x1="192" y1="192" x2="1728" y2="192" stroke="rgba(255,255,255,0.04)" stroke-width="0.6"/><line x1="192" y1="208" x2="1728" y2="208" stroke="rgba(255,255,255,0.02)" stroke-width="0.6"/><line x1="192" y1="224" x2="1728" y2="224" stroke="rgba(255,255,255,0.04)" stroke-width="0.6"/><line x1="192" y1="240" x2="1728" y2="240" stroke="rgba(255,255,255,0.02)" stroke-width="0.6"/><line x1="192" y1="256" x2="1728" y2="256" stroke="rgba(255,255,255,0.04)" stroke-width="0.6"/><line x1="192" y1="272" x2="1728" y2="272" stroke="rgba(255,255,255,0.02)" stroke-width="0.6"/><line x1="192" y1="288" x2="1728" y2="288" stroke="rgba(255,255,255,0.04)" stroke-width="0.6"/><line x1="192" y1="304" x2="1728" y2="304" stroke="rgba(255,255,255,0.02)" stroke-width="0.6"/><line x1="192" y1="320" x2="1728" y2="320" stroke="rgba(255,255,255,0.04)" stroke-width="0.6"/><line x1="192" y1="336" x2="1728" y2="336" stroke="rgba(255,255,255,0.02)" stroke-width="0.6"/><line x1="192" y1="352" x2="1728" y2="352" stroke="rgba(255,255,255,0.04)" stroke-width="0.6"/><line x1="192" y1="368" x2="1728" y2="368" stroke="rgba(255,255,255,0.02)" stroke-width="0.6"/><line x1="192" y1="384" x2="1728" y2="384" stroke="rgba(255,255,255,0.04)" stroke-width="0.6"/><line x1="192" y1="400" x2="1728" y2="400" stroke="rgba(255,255,255,0.02)" stroke-width="0.6"/><line x1="192" y1="416" x2="1728" y2="416" stroke="rgba(255,255,255,0.04)" stroke-width="0.6"/><line x1="192" y1="432" x2="1728" y2="432" stroke="rgba(255,255,255,0.02)" stroke-width="0.6"/><line x1="192" y1="448" x2="1728" y2="448" stroke="rgba(255,255,255,0.04)" stroke-width="0.6"/><line x1="192" y1="464" x2="1728" y2="464" stroke="rgba(255,255,255,0.02)" stroke-width="0.6"/><line x1="192" y1="480" x2="1728" y2="480" stroke="rgba(255,255,255,0.04)" stroke-width="0.6"/><line x1="192" y1="496" x2="1728" y2="496" stroke="rgba(255,255,255,0.02)" stroke-width="0.6"/><line x1="192" y1="512" x2="1728" y2="512" stroke="rgba(255,255,255,0.04)" stroke-width="0.6"/><line x1="192" y1="528" x2="1728" y2="528" stroke="rgba(255,255,255,0.02)" stroke-width="0.6"/><line x1="192" y1="544" x2="1728" y2="544" stroke="rgba(255,255,255,0.04)" stroke-width="0.6"/><line x1="192" y1="560" x2="1728" y2="560" stroke="rgba(255,255,255,0.02)" stroke-width="0.6"/><line x1="192" y1="576" x2="1728" y2="576" stroke="rgba(255,255,255,0.04)" stroke-width="0.6"/><line x1="192" y1="592" x2="1728" y2="592" stroke="rgba(255,255,255,0.02)" stroke-width="0.6"/><line x1="192" y1="608" x2="1728" y2="608" stroke="rgba(255,255,255,0.04)" stroke-width="0.6"/><path d="M960,220 L1000,250 L1000,310 Q1000,340 960,360 Q920,340 920,310 L920,250 Z" fill="rgba(255,255,255,0.025)" stroke="rgba(255,255,255,0.07)" stroke-width="1"/>
  <line x1="288" y1="680" x2="1632" y2="680" stroke="#E07B12" stroke-width="0" stroke-linecap="round" opacity="0.85"/>
  <text x="960" y="354.3333333333333" font-family="'Helvetica Neue', Helvetica, Arial, sans-serif" font-size="28" font-weight="300" fill="rgba(255,255,255,0)" text-anchor="middle" letter-spacing="2"></text>
  <text x="960" y="702" font-family="'Helvetica Neue', Helvetica, Arial, sans-serif" font-size="11" letter-spacing="4" fill="rgba(255,255,255,0.2)" text-anchor="middle" font-variant="small-caps">MOSAROMA</text>
</svg>